<svg width="190" height="263" viewBox="0 0 190 263" fill="none" xmlns="http://www.w3.org/2000/svg">
<path d="M150.818 65.4942C170.844 50.0632 181.393 30.7137 174.381 22.2762C167.368 13.8385 145.449 19.5079 125.424 34.939C105.398 50.3701 94.8486 69.7195 101.861 78.1571C108.873 86.5947 130.792 80.9253 150.818 65.4942Z" fill="#29C16E"/>
<path d="M83.6543 80.6475C89.6814 74.844 81.1526 57.2222 64.6045 41.2881C48.0565 25.3541 29.7556 17.1418 23.7284 22.9453C17.7012 28.7489 26.23 46.3707 42.7782 62.3047C59.3262 78.2387 77.6271 86.4511 83.6543 80.6475Z" fill="#29C16E"/>
<path d="M164.763 166.386C173.526 159.635 167.638 138.529 151.612 119.246C135.587 99.9632 115.491 89.8053 106.729 96.5576C97.9659 103.31 103.854 124.415 119.88 143.697C135.905 162.98 156 173.138 164.763 166.386Z" fill="#EF3C56"/>
<path d="M19.6484 173.659C19.6484 193.745 27.9354 213.009 42.6861 227.212C57.4368 241.416 77.4431 249.395 98.3038 249.395C141.745 249.395 206.587 180.787 165.286 167.847C119.972 153.653 99.074 99.3913 89.6825 98.3773C46.5139 93.7127 19.6484 131.83 19.6484 173.659Z" fill="#EF3C56"/>
<path d="M0.0381162 11.4309C0.0603399 27.7612 4.61604 43.7888 13.2335 57.8538C21.8508 71.919 34.2166 83.51 49.05 91.4267C41.2759 95.5784 34.143 100.756 27.8585 106.81C13.76 120.372 4.4477 137.86 1.23935 156.798C-1.96901 175.736 1.08906 195.167 9.98079 212.34C18.8725 229.512 33.1476 243.558 50.786 252.489C68.4245 261.419 88.5329 264.784 108.266 262.103C127.999 259.423 146.358 250.837 160.743 237.558C175.129 224.278 184.813 206.98 188.426 188.109C192.038 169.238 189.397 149.751 180.874 132.405C172.352 115.06 158.38 100.734 140.937 91.4553C155.791 83.5498 168.173 71.9589 176.801 57.8868C185.429 43.8147 189.986 27.7749 189.999 11.4334C189.999 9.93204 189.693 8.44527 189.096 7.05808C188.501 5.67088 187.626 4.41043 186.523 3.34872C185.42 2.287 184.111 1.44483 182.67 0.870306C181.231 0.295781 179.687 0.000161716 178.127 0.000325179C165.649 -0.0318197 153.286 2.31955 141.759 6.91837C130.23 11.5172 119.763 18.272 110.964 26.792C104.677 32.8435 99.3004 39.7119 94.9891 47.1972C86.774 32.9087 74.7377 20.9972 60.1291 12.6988C45.5206 4.40027 28.8718 0.0170883 11.9105 0.00404628C10.3517 0.00371946 8.80819 0.299037 7.36795 0.873115C5.9277 1.44719 4.61899 2.28879 3.51653 3.34987C2.41408 4.41096 1.53948 5.67075 0.942649 7.0573C0.345819 8.44385 0.0384556 9.93002 0.0381162 11.4309ZM108.101 78.8439C110.744 65.2467 117.594 52.7363 127.753 42.9544C137.911 33.1725 150.904 26.5758 165.024 24.0299C162.361 37.6187 155.504 50.1186 145.35 59.8972C135.195 69.6759 122.213 76.2788 108.101 78.8439ZM145.365 123C155.527 132.77 162.381 145.273 165.024 158.863C150.919 156.295 137.943 149.695 127.793 139.92C117.642 130.145 110.786 117.653 108.119 104.07C122.234 106.616 135.218 113.215 145.365 123ZM44.6463 122.978C55.2968 112.668 69.096 105.914 84.0224 103.703C86.8205 123.538 96.2948 141.943 110.994 156.097C125.693 170.252 144.806 179.375 165.406 182.07C163.67 192.772 159.327 202.926 152.732 211.7C146.138 220.474 137.479 227.621 127.465 232.553C117.45 237.487 106.365 240.066 95.1167 240.081C83.8682 240.095 72.776 237.545 62.7478 232.638C52.7197 227.731 44.0409 220.608 37.4218 211.85C30.8025 203.093 26.4311 192.95 24.6654 182.253C22.8995 171.557 23.7896 160.609 27.2624 150.307C30.7353 140.005 36.6925 130.642 44.6463 122.983V122.978ZM25.0054 24.0461C39.1117 26.6136 52.087 33.2154 62.2383 42.99C72.3896 52.7647 79.2458 65.2585 81.9123 78.8414C67.8068 76.2732 54.8324 69.6713 44.6821 59.8966C34.5316 50.1219 27.6764 37.6284 25.0105 24.0461H25.0054Z" fill="#0E1E28"/>
</svg>
